<?xml version="1.0" encoding="UTF-8" standalone="no"?>
<!-- Created with Inkscape (http://www.inkscape.org/) -->

<svg
   xmlns:dc="http://purl.org/dc/elements/1.1/"
   xmlns:cc="http://creativecommons.org/ns#"
   xmlns:rdf="http://www.w3.org/1999/02/22-rdf-syntax-ns#"
   xmlns:svg="http://www.w3.org/2000/svg"
   xmlns="http://www.w3.org/2000/svg"
   xmlns:sodipodi="http://sodipodi.sourceforge.net/DTD/sodipodi-0.dtd"
   xmlns:inkscape="http://www.inkscape.org/namespaces/inkscape"
   width="170.84486mm"
   height="170.84538mm"
   viewBox="0 0 170.84486 170.84538"
   version="1.1"
   id="svg8"
   inkscape:version="0.92.2 (5c3e80d, 2017-08-06)"
   sodipodi:docname="icon7.svg">
  <defs
     id="defs2" />
  <sodipodi:namedview
     id="base"
     pagecolor="#ffffff"
     bordercolor="#666666"
     borderopacity="1.0"
     inkscape:pageopacity="0.0"
     inkscape:pageshadow="2"
     inkscape:zoom="0.175"
     inkscape:cx="1659.364"
     inkscape:cy="-25.730016"
     inkscape:document-units="mm"
     inkscape:current-layer="layer1"
     showgrid="false"
     inkscape:window-width="1920"
     inkscape:window-height="1003"
     inkscape:window-x="-9"
     inkscape:window-y="-9"
     inkscape:window-maximized="1"
     fit-margin-top="0"
     fit-margin-left="0"
     fit-margin-right="0"
     fit-margin-bottom="0" />
  <metadata
     id="metadata5">
    <rdf:RDF>
      <cc:Work
         rdf:about="">
        <dc:format>image/svg+xml</dc:format>
        <dc:type
           rdf:resource="http://purl.org/dc/dcmitype/StillImage" />
        <dc:title></dc:title>
      </cc:Work>
    </rdf:RDF>
  </metadata>
  <g
     inkscape:label="Layer 1"
     inkscape:groupmode="layer"
     id="layer1"
     transform="translate(-1136.7802,43.178759)">
    <g
       id="g1268">
      <path
         transform="scale(0.26458333)"
         id="path1142"
         d="m 4939.7676,123.39844 a 322.85716,322.85716 0 0 0 -266.8965,-281.76367 c -1.5505,3.51038 -2.8669,6.71975 -4.8477,10.7832 -3.3678,6.90882 -7.368,14.62951 -12.039,23.20898 -2.3355,4.28974 -4.5223,8.50686 -6.5625,12.65039 -2.0402,4.14354 -3.9344,8.21305 -5.6875,12.212894 -1.7532,3.999844 -3.3656,7.928442 -4.8399,11.78711 -1.4743,3.858667 -2.81,7.647182 -4.0136,11.367187 -1.2037,3.720006 -2.2756,7.373175 -3.2168,10.957031 -0.9413,3.583857 -1.7524,7.098607 -2.4395,10.548829 -0.6871,3.450221 -1.2503,6.835197 -1.6914,10.154297 -0.4411,3.319099 -0.7596,6.57318 -0.9629,9.763671 -0.2033,3.190491 -0.2899,6.316463 -0.2637,9.38086 0.026,3.064396 0.1646,6.066997 0.4122,9.007812 0.2475,2.940815 0.6037,5.820878 1.0644,8.6406252 0.4607,2.8197473 1.0258,5.580057 1.6914,8.28125005 0.6656,2.70119305 1.4326,5.34258205 2.2949,7.92773435 0.8623,2.5851524 1.8203,5.1123594 2.8711,7.5839844 1.0508,2.471625 2.1928,4.887435 3.4239,7.248047 1.231,2.360611 2.55,4.66781 3.9531,6.919922 1.4031,2.252111 2.8901,4.449578 4.457,6.595703 1.5669,2.146125 3.215,4.240551 4.9375,6.283203 1.7225,2.042652 3.5207,4.032917 5.3906,5.974609 1.87,1.941692 3.8112,3.834489 5.8203,5.677735 4.0183,3.686491 8.3064,7.178539 12.8321,10.486328 4.5257,3.307788 9.2884,6.431666 14.2558,9.380859 4.9674,2.949194 10.1391,5.723278 15.4825,8.333985 5.3434,2.610706 10.858,5.057281 16.5117,7.349609 5.6536,2.292328 11.4475,4.429771 17.3457,6.423828 5.8982,1.994057 11.9014,3.844657 17.9785,5.560547 6.077,1.71589 12.2278,3.29802 18.418,4.75586 6.1901,1.45784 12.4206,2.79182 18.6582,4.01172 6.2375,1.21989 12.4819,2.32607 18.7011,3.32812 6.2192,1.00206 12.4118,1.90076 18.5469,2.70508 12.2703,1.60865 24.308,2.84092 35.8477,3.7793 11.5397,0.93838 22.5819,1.58274 32.8652,2.01172 10.2833,0.42897 19.8074,0.64222 28.3086,0.72265 4.3678,0.0413 7.6003,-0.0225 11.3926,-0.041 z"
         style="opacity:1;fill:#f99656;fill-opacity:1;stroke:none;stroke-width:7.18110228;stroke-miterlimit:4;stroke-dasharray:none;stroke-dashoffset:0;stroke-opacity:1"
         inkscape:connector-curvature="0" />
      <path
         transform="scale(0.26458333)"
         id="path1140"
         d="m 4401.9688,397.85156 a 322.85716,322.85716 0 0 0 217.3789,84.66797 322.85716,322.85716 0 0 0 322.8574,-322.85742 322.85716,322.85716 0 0 0 -0.8281,-22.99805 z"
         style="opacity:1;fill:#06abe4;fill-opacity:1;stroke:none;stroke-width:7.18110228;stroke-miterlimit:4;stroke-dasharray:none;stroke-dashoffset:0;stroke-opacity:1"
         inkscape:connector-curvature="0" />
      <path
         transform="scale(0.26458333)"
         id="path1138"
         d="m 4624.4297,-162.94141 a 322.85716,322.85716 0 0 0 -5.082,-0.2539 322.85716,322.85716 0 0 0 -322.8555,322.85742 322.85716,322.85716 0 0 0 0.4883,13.81055 c 14.0299,-15.5583 31.4469,-34.81559 53.1484,-58.47852 23.9984,-26.167388 51.6073,-55.980554 80.4375,-86.544921 14.4151,-15.282184 29.1361,-30.7512861 43.8633,-46.046875 14.7271,-15.295589 29.4604,-30.416852 43.9023,-45.001953 14.442,-14.585102 28.593,-28.634435 42.1524,-41.785161 13.5594,-13.15072 26.5278,-25.40403 38.6074,-36.39648 6.0398,-5.49622 11.8581,-10.67712 17.416,-15.49805 2.7765,-2.40836 5.2796,-4.4392 7.9219,-6.66211 z"
         style="opacity:1;fill:#f5fb5b;fill-opacity:1;stroke:none;stroke-width:7.18110228;stroke-miterlimit:4;stroke-dasharray:none;stroke-dashoffset:0;stroke-opacity:1"
         inkscape:connector-curvature="0" />
      <path
         transform="scale(0.26458333)"
         id="circle842"
         d="m 4624.4297,-162.94141 c -2.6423,2.22291 -5.1454,4.25375 -7.9219,6.66211 -5.5579,4.82093 -11.3762,10.00183 -17.416,15.49805 -12.0796,10.99245 -25.048,23.24576 -38.6074,36.39648 -13.5594,13.150726 -27.7104,27.200059 -42.1524,41.785161 -14.4419,14.585101 -29.1752,29.706364 -43.9023,45.001953 -14.7272,15.2955889 -29.4482,30.764691 -43.8633,46.046875 -28.8302,30.564367 -56.4391,60.377533 -80.4375,86.544921 -21.7015,23.66293 -39.1185,42.92022 -53.1484,58.47852 a 322.85716,322.85716 0 0 0 104.9883,224.3789 l 539.4082,-261.1875 a 322.85716,322.85716 0 0 0 -1.6094,-13.26562 c -3.7923,0.0185 -7.0248,0.0823 -11.3926,0.041 -8.5012,-0.0804 -18.0253,-0.29368 -28.3086,-0.72265 -10.2833,-0.42898 -21.3255,-1.07334 -32.8652,-2.01172 -11.5397,-0.93838 -23.5774,-2.17065 -35.8477,-3.7793 -6.1351,-0.80432 -12.3277,-1.70302 -18.5469,-2.70508 -6.2192,-1.00205 -12.4636,-2.10823 -18.7011,-3.32812 -6.2376,-1.2199 -12.4681,-2.55388 -18.6582,-4.01172 -6.1902,-1.45784 -12.341,-3.03997 -18.418,-4.75586 -6.0771,-1.71589 -12.0803,-3.56649 -17.9785,-5.560547 -5.8982,-1.994057 -11.6921,-4.1315 -17.3457,-6.423828 -5.6537,-2.292328 -11.1683,-4.738903 -16.5117,-7.349609 -5.3434,-2.610707 -10.5151,-5.384791 -15.4825,-8.333985 -4.9674,-2.949193 -9.7301,-6.073071 -14.2558,-9.380859 -4.5257,-3.307789 -8.8138,-6.799837 -12.8321,-10.486328 -2.0091,-1.843246 -3.9503,-3.736043 -5.8203,-5.677735 -1.8699,-1.941692 -3.6681,-3.931957 -5.3906,-5.974609 -1.7225,-2.042652 -3.3706,-4.137078 -4.9375,-6.283203 -1.5669,-2.146125 -3.0539,-4.343592 -4.457,-6.595703 -1.4031,-2.252112 -2.7221,-4.559311 -3.9531,-6.919922 -1.2311,-2.360612 -2.3731,-4.776422 -3.4239,-7.248047 -1.0508,-2.471625 -2.0088,-4.998832 -2.8711,-7.5839844 -0.8623,-2.5851523 -1.6293,-5.2265413 -2.2949,-7.92773435 -0.6656,-2.70119305 -1.2307,-5.46150275 -1.6914,-8.28125005 -0.4607,-2.8197472 -0.8169,-5.6998102 -1.0644,-8.6406252 -0.2476,-2.940815 -0.3859,-5.943416 -0.4122,-9.007812 -0.026,-3.064397 0.06,-6.190369 0.2637,-9.38086 0.2033,-3.190491 0.5218,-6.444572 0.9629,-9.763671 0.4411,-3.3191 1.0043,-6.704076 1.6914,-10.154297 0.6871,-3.450222 1.4982,-6.964972 2.4395,-10.548829 0.9412,-3.583856 2.0131,-7.237025 3.2168,-10.957031 1.2036,-3.720005 2.5393,-7.50852 4.0136,-11.367187 1.4743,-3.858668 3.0867,-7.787266 4.8399,-11.78711 1.7531,-3.999844 3.6473,-8.069354 5.6875,-12.212894 2.0402,-4.14353 4.227,-8.36065 6.5625,-12.65039 4.671,-8.57947 8.6712,-16.30016 12.039,-23.20898 1.9808,-4.06345 3.2972,-7.27282 4.8477,-10.7832 a 322.85716,322.85716 0 0 0 -48.4414,-4.57618 z"
         style="opacity:1;fill:#ffffff;fill-opacity:1;stroke:none;stroke-width:7.18110228;stroke-miterlimit:4;stroke-dasharray:none;stroke-dashoffset:0;stroke-opacity:1"
         inkscape:connector-curvature="0" />
    </g>
  </g>
</svg>
