<?xml version="1.0" encoding="UTF-8" standalone="no"?>
<!-- Created with Inkscape (http://www.inkscape.org/) -->

<svg
   xmlns:dc="http://purl.org/dc/elements/1.1/"
   xmlns:cc="http://creativecommons.org/ns#"
   xmlns:rdf="http://www.w3.org/1999/02/22-rdf-syntax-ns#"
   xmlns:svg="http://www.w3.org/2000/svg"
   xmlns="http://www.w3.org/2000/svg"
   xmlns:sodipodi="http://sodipodi.sourceforge.net/DTD/sodipodi-0.dtd"
   xmlns:inkscape="http://www.inkscape.org/namespaces/inkscape"
   width="170.84537mm"
   height="170.84538mm"
   viewBox="0 0 170.84537 170.84538"
   version="1.1"
   id="svg8"
   inkscape:version="0.92.2 (5c3e80d, 2017-08-06)"
   sodipodi:docname="icon5.svg">
  <defs
     id="defs2" />
  <sodipodi:namedview
     id="base"
     pagecolor="#ffffff"
     bordercolor="#666666"
     borderopacity="1.0"
     inkscape:pageopacity="0.0"
     inkscape:pageshadow="2"
     inkscape:zoom="0.175"
     inkscape:cx="-654.87924"
     inkscape:cy="-225.72971"
     inkscape:document-units="mm"
     inkscape:current-layer="layer1"
     showgrid="false"
     inkscape:window-width="1920"
     inkscape:window-height="1003"
     inkscape:window-x="-9"
     inkscape:window-y="-9"
     inkscape:window-maximized="1"
     fit-margin-top="0"
     fit-margin-left="0"
     fit-margin-right="0"
     fit-margin-bottom="0" />
  <metadata
     id="metadata5">
    <rdf:RDF>
      <cc:Work
         rdf:about="">
        <dc:format>image/svg+xml</dc:format>
        <dc:type
           rdf:resource="http://purl.org/dc/dcmitype/StillImage" />
        <dc:title></dc:title>
      </cc:Work>
    </rdf:RDF>
  </metadata>
  <g
     inkscape:label="Layer 1"
     inkscape:groupmode="layer"
     id="layer1"
     transform="translate(-700.59599,43.178759)">
    <g
       id="g1250">
      <path
         transform="scale(0.26458333)"
         id="path1108"
         d="m 3162.1621,-99.896484 c -27.3391,11.197036 -53.8064,22.059781 -77.7988,32.269531 -13.7107,5.834456 -26.841,11.527662 -39.3535,17.107422 -12.5126,5.57976 -24.4067,11.045607 -35.6446,16.419922 -11.2378,5.374315 -21.8203,10.658832 -31.707,15.876953 -9.8867,5.21812 -19.0782,10.3692911 -27.5371,15.4804685 -4.2295,2.55558872 -8.2747,5.1005844 -12.1328,7.6386719 -3.8582,2.5380874 -7.5286,5.0689605 -11.0059,7.5957036 -3.4773,2.526742 -6.7627,5.050711 -9.8496,7.572265 -3.0869,2.521554 -5.9752,5.041931 -8.6621,7.564453 -2.6869,2.522522 -5.1719,5.046526 -7.4492,7.576172 -2.2773,2.529646 -4.3469,5.064495 -6.2051,7.607422 -1.8582,2.542927 -3.5041,5.093886 -4.9336,7.65625 -1.4295,2.562364 -2.6416,5.136652 -3.6328,7.724609 -0.9912,2.587957 -1.7613,5.188887 -2.3047,7.808594 -0.5434,2.619707 -0.8613,5.258403 -0.9473,7.916016 -0.086,2.657613 0.061,5.335434 0.4415,8.037109 0.3809,2.701676 0.9979,5.42584 1.8554,8.177734 0.8575,2.751895 1.9552,5.531575 3.2989,8.339844 1.3436,2.808274 2.9321,5.644824 4.7714,8.515624 1.8393,2.8708 3.9289,5.77536 6.2735,8.71484 2.3445,2.93949 4.9434,5.91536 7.8027,8.92969 2.8594,3.01434 5.9796,6.06678 9.3633,9.16211 3.3837,3.09534 7.0315,6.23353 10.9492,9.41602 3.9177,3.18249 8.1052,6.40974 12.5664,9.68554 4.4612,3.27581 9.1967,6.59934 14.2109,9.97461 7.9514,5.35233 15.2566,10.64083 21.9473,15.86329 3.3454,2.61122 6.5359,5.20501 9.5781,7.7832 3.0423,2.57819 5.9346,5.14077 8.6817,7.68554 2.7471,2.54478 5.3485,5.07302 7.8086,7.58399 2.46,2.51097 4.78,5.00367 6.9609,7.48047 2.181,2.4768 4.2229,4.93666 6.1328,7.3789 1.9099,2.44225 3.6871,4.86809 5.334,7.2754 1.6469,2.4073 3.1648,4.79597 4.5566,7.16796 1.3919,2.372 2.6579,4.7262 3.8028,7.0625 1.1448,2.33631 2.1683,4.65485 3.0742,6.95508 0.9059,2.30023 1.6942,4.58388 2.3691,6.84766 0.675,2.26378 1.2356,4.50742 1.6875,6.73437 0.452,2.22695 0.7943,4.43721 1.0313,6.62696 0.237,2.18974 0.3702,4.35956 0.4004,6.51171 0.03,2.15216 -0.042,4.28621 -0.211,6.4004 -0.1687,2.11418 -0.4353,4.20931 -0.7949,6.28515 -0.3596,2.07584 -0.813,4.13281 -1.3554,6.16992 -0.5425,2.03712 -1.1734,4.05473 -1.8907,6.05274 -0.7173,1.99801 -1.5202,3.97507 -2.4043,5.93359 -1.7682,3.91705 -3.8626,7.75488 -6.25,11.51172 -2.3873,3.75684 -5.0674,7.43375 -8.0097,11.02734 -2.9424,3.5936 -6.1469,7.10394 -9.5801,10.53125 -3.4332,3.42732 -7.0952,6.7713 -10.9551,10.0293 -3.8599,3.258 -7.9182,6.42997 -12.1406,9.51563 -4.2225,3.08565 -8.61,6.08386 -13.1309,8.99414 -4.5208,2.91027 -9.1746,5.73298 -13.9297,8.46484 -4.755,2.73187 -9.6099,5.37341 -14.5351,7.92383 -4.9252,2.55042 -9.92,5.00906 -14.9512,7.375 -5.0311,2.36594 -10.0989,4.63993 -15.1719,6.81836 -10.1459,4.35685 -20.312,8.33523 -30.2402,11.92383 -9.9282,3.58859 -19.6191,6.7879 -28.8164,9.58398 -9.1974,2.79608 -17.9002,5.18868 -25.8535,7.16797 -7.9533,1.97929 -15.1575,3.54341 -21.3535,4.68164 -4.7631,0.87499 -8.3131,1.26752 -11.7696,1.63281 a 322.85716,322.85716 0 0 0 176.2266,52.66797 322.85716,322.85716 0 0 0 322.8574,-322.85742 322.85716,322.85716 0 0 0 -131.4746,-259.558594 z"
         style="opacity:1;fill:#ffffff;fill-opacity:1;stroke:none;stroke-width:7.18110228;stroke-miterlimit:4;stroke-dasharray:none;stroke-dashoffset:0;stroke-opacity:1"
         inkscape:connector-curvature="0" />
      <path
         transform="scale(0.26458333)"
         id="circle838"
         d="m 2970.7793,-163.19531 a 322.85716,322.85716 0 0 0 -322.8574,322.85742 322.85716,322.85716 0 0 0 146.6308,270.18945 c 3.4565,-0.36529 7.0065,-0.75782 11.7696,-1.63281 6.196,-1.13823 13.4002,-2.70235 21.3535,-4.68164 7.9533,-1.97929 16.6561,-4.37189 25.8535,-7.16797 9.1973,-2.79608 18.8882,-5.99539 28.8164,-9.58398 9.9282,-3.5886 20.0943,-7.56698 30.2402,-11.92383 5.073,-2.17843 10.1408,-4.45242 15.1719,-6.81836 5.0312,-2.36594 10.026,-4.82458 14.9512,-7.375 4.9252,-2.55042 9.7801,-5.19196 14.5351,-7.92383 4.7551,-2.73186 9.4089,-5.55457 13.9297,-8.46484 4.5209,-2.91028 8.9084,-5.90849 13.1309,-8.99414 4.2224,-3.08566 8.2807,-6.25763 12.1406,-9.51563 3.8599,-3.258 7.5219,-6.60198 10.9551,-10.0293 3.4332,-3.42731 6.6377,-6.93765 9.5801,-10.53125 2.9423,-3.59359 5.6224,-7.2705 8.0097,-11.02734 2.3874,-3.75684 4.4818,-7.59467 6.25,-11.51172 0.8841,-1.95852 1.687,-3.93558 2.4043,-5.93359 0.7173,-1.99801 1.3482,-4.01562 1.8907,-6.05274 0.5424,-2.03711 0.9958,-4.09408 1.3554,-6.16992 0.3596,-2.07584 0.6262,-4.17097 0.7949,-6.28515 0.1688,-2.11419 0.2411,-4.24824 0.211,-6.4004 -0.03,-2.15215 -0.1634,-4.32197 -0.4004,-6.51171 -0.237,-2.18975 -0.5793,-4.40001 -1.0313,-6.62696 -0.4519,-2.22695 -1.0125,-4.47059 -1.6875,-6.73437 -0.6749,-2.26378 -1.4632,-4.54743 -2.3691,-6.84766 -0.9059,-2.30023 -1.9294,-4.61877 -3.0742,-6.95508 -1.1449,-2.3363 -2.4109,-4.6905 -3.8028,-7.0625 -1.3918,-2.37199 -2.9097,-4.76066 -4.5566,-7.16796 -1.6469,-2.40731 -3.4241,-4.83315 -5.334,-7.2754 -1.9099,-2.44224 -3.9518,-4.9021 -6.1328,-7.3789 -2.1809,-2.4768 -4.5009,-4.9695 -6.9609,-7.48047 -2.4601,-2.51097 -5.0615,-5.03921 -7.8086,-7.58399 -2.7471,-2.54477 -5.6394,-5.10735 -8.6817,-7.68554 -3.0422,-2.57819 -6.2327,-5.17198 -9.5781,-7.7832 -6.6907,-5.22246 -13.9959,-10.51096 -21.9473,-15.86329 -5.0142,-3.37527 -9.7497,-6.6988 -14.2109,-9.97461 -4.4612,-3.2758 -8.6487,-6.50305 -12.5664,-9.68554 -3.9177,-3.18249 -7.5655,-6.32068 -10.9492,-9.41602 -3.3837,-3.09533 -6.5039,-6.14777 -9.3633,-9.16211 -2.8593,-3.01433 -5.4582,-5.9902 -7.8027,-8.92969 -2.3446,-2.93948 -4.4342,-5.84404 -6.2735,-8.71484 -1.8393,-2.8708 -3.4278,-5.70735 -4.7714,-8.515624 -1.3437,-2.808269 -2.4414,-5.587949 -3.2989,-8.339844 -0.8575,-2.751894 -1.4745,-5.476058 -1.8554,-8.177734 -0.381,-2.701675 -0.5274,-5.379496 -0.4415,-8.037109 0.086,-2.657613 0.4039,-5.296309 0.9473,-7.916016 0.5434,-2.619707 1.3135,-5.220637 2.3047,-7.808594 0.9912,-2.587957 2.2033,-5.162245 3.6328,-7.724609 1.4295,-2.562364 3.0754,-5.113323 4.9336,-7.65625 1.8582,-2.542927 3.9278,-5.077776 6.2051,-7.607422 2.2773,-2.529646 4.7623,-5.05365 7.4492,-7.576172 2.6869,-2.522522 5.5752,-5.042899 8.6621,-7.564453 3.0869,-2.521554 6.3723,-5.045523 9.8496,-7.572265 3.4773,-2.5267431 7.1477,-5.0576162 11.0059,-7.5957036 3.8581,-2.5380875 7.9033,-5.08308318 12.1328,-7.6386719 8.4589,-5.1111774 17.6504,-10.2623485 27.5371,-15.4804685 9.8867,-5.218121 20.4692,-10.502638 31.707,-15.876953 11.2379,-5.374315 23.132,-10.840162 35.6446,-16.419922 12.5125,-5.57976 25.6428,-11.272966 39.3535,-17.107422 23.9924,-10.20975 50.4597,-21.072495 77.7988,-32.269531 a 322.85716,322.85716 0 0 0 -191.3828,-63.298826 z"
         style="opacity:1;fill:#131113;fill-opacity:1;stroke:none;stroke-width:7.18110228;stroke-miterlimit:4;stroke-dasharray:none;stroke-dashoffset:0;stroke-opacity:1"
         inkscape:connector-curvature="0" />
    </g>
  </g>
</svg>
