<?xml version="1.0" encoding="UTF-8" standalone="no"?>
<!-- Created with Inkscape (http://www.inkscape.org/) -->

<svg
   xmlns:dc="http://purl.org/dc/elements/1.1/"
   xmlns:cc="http://creativecommons.org/ns#"
   xmlns:rdf="http://www.w3.org/1999/02/22-rdf-syntax-ns#"
   xmlns:svg="http://www.w3.org/2000/svg"
   xmlns="http://www.w3.org/2000/svg"
   xmlns:sodipodi="http://sodipodi.sourceforge.net/DTD/sodipodi-0.dtd"
   xmlns:inkscape="http://www.inkscape.org/namespaces/inkscape"
   width="170.84537mm"
   height="170.84538mm"
   viewBox="0 0 170.84537 170.84538"
   version="1.1"
   id="svg8"
   inkscape:version="0.92.2 (5c3e80d, 2017-08-06)"
   sodipodi:docname="icon6.svg">
  <defs
     id="defs2" />
  <sodipodi:namedview
     id="base"
     pagecolor="#ffffff"
     bordercolor="#666666"
     borderopacity="1.0"
     inkscape:pageopacity="0.0"
     inkscape:pageshadow="2"
     inkscape:zoom="0.175"
     inkscape:cx="2492.9989"
     inkscape:cy="122.84157"
     inkscape:document-units="mm"
     inkscape:current-layer="layer1"
     showgrid="false"
     inkscape:window-width="1920"
     inkscape:window-height="1003"
     inkscape:window-x="-9"
     inkscape:window-y="-9"
     inkscape:window-maximized="1"
     fit-margin-top="0"
     fit-margin-left="0"
     fit-margin-right="0"
     fit-margin-bottom="0" />
  <metadata
     id="metadata5">
    <rdf:RDF>
      <cc:Work
         rdf:about="">
        <dc:format>image/svg+xml</dc:format>
        <dc:type
           rdf:resource="http://purl.org/dc/dcmitype/StillImage" />
        <dc:title></dc:title>
      </cc:Work>
    </rdf:RDF>
  </metadata>
  <g
     inkscape:label="Layer 1"
     inkscape:groupmode="layer"
     id="layer1"
     transform="translate(-931.51678,43.178759)">
    <g
       id="g1262">
      <path
         transform="scale(0.26458333)"
         id="path1117"
         d="m 3833.707,-162.84766 a 322.85716,322.85716 0 0 0 -313.0136,322.50977 322.85716,322.85716 0 0 0 60.9414,188.08594 c 0.436,-0.34097 0.8428,-0.70779 1.2851,-1.04297 1.9784,-1.49932 4.0199,-2.93982 6.125,-4.3125 2.1052,-1.37268 4.273,-2.67821 6.5078,-3.90625 2.2349,-1.22804 4.5368,-2.37797 6.9043,-3.44336 2.3676,-1.0654 4.8015,-2.04494 7.3047,-2.92969 2.5032,-0.88475 5.075,-1.67523 7.7168,-2.36133 2.6418,-0.68609 5.3534,-1.26884 8.1367,-1.73828 2.7834,-0.46944 5.6386,-0.82576 8.5664,-1.06055 2.9279,-0.23478 5.9286,-0.34795 9.0039,-0.33007 3.0754,0.0179 6.2254,0.16653 9.4512,0.45507 3.2258,0.28855 6.5271,0.71771 9.9063,1.29493 3.3791,0.57721 6.8355,1.30361 10.3711,2.1875 7.071,1.76776 13.8276,3.28215 20.2871,4.55273 6.4594,1.27058 12.6224,2.29676 18.5097,3.08594 5.8873,0.78918 11.499,1.34245 16.8536,1.66601 5.3546,0.32357 10.4511,0.41729 15.3125,0.29102 4.8613,-0.12627 9.4869,-0.47288 13.8945,-1.0332 4.4076,-0.56032 8.5985,-1.33392 12.5918,-2.3125 3.9932,-0.97859 7.7878,-2.1619 11.4062,-3.54297 3.6184,-1.38107 7.0608,-2.96075 10.3438,-4.72852 3.283,-1.76776 6.4075,-3.7246 9.3945,-5.86328 2.9871,-2.13868 5.8358,-4.45931 8.5664,-6.95312 2.7306,-2.49382 5.3439,-5.16098 7.8574,-7.99414 2.5136,-2.83317 4.9277,-5.83156 7.2637,-8.98829 2.336,-3.15672 4.5931,-6.47103 6.791,-9.93554 2.1979,-3.46451 4.3363,-7.07943 6.4356,-10.83594 2.0992,-3.75651 4.1591,-7.65478 6.1992,-11.6875 2.04,-4.03272 4.0597,-8.19904 6.0801,-12.49219 0.505,-1.07328 0.8974,-2.13554 1.1816,-3.1875 0.2842,-1.05195 0.4618,-2.09364 0.5332,-3.125 0.072,-1.03136 0.037,-2.05294 -0.096,-3.06445 -0.1332,-1.01151 -0.3656,-2.01346 -0.6953,-3.00586 -0.3297,-0.9924 -0.7572,-1.9752 -1.2754,-2.94922 -0.5182,-0.97402 -1.1277,-1.94009 -1.8262,-2.89648 -1.3969,-1.91278 -3.1471,-3.79004 -5.2168,-5.63672 -2.0696,-1.84669 -4.4593,-3.66271 -7.1367,-5.44922 -2.6774,-1.78651 -5.6429,-3.54314 -8.8633,-5.27539 -3.2203,-1.73225 -6.6961,-3.43913 -10.3945,-5.12305 -3.6984,-1.68391 -7.6188,-3.34483 -11.7305,-4.98633 -8.2232,-3.28299 -17.2083,-6.48788 -26.6953,-9.63672 -9.4869,-3.14883 -19.4753,-6.24266 -29.707,-9.30468 -20.4635,-6.12405 -41.8972,-12.12073 -62.2266,-18.18164 -10.1646,-3.03046 -20.0534,-6.07641 -29.4062,-9.16211 -9.3528,-3.0857 -18.1713,-6.2121 -26.1934,-9.40039 -4.011,-1.59415 -7.8232,-3.20336 -11.4043,-4.83203 -3.581,-1.62868 -6.9294,-3.2762 -10.0156,-4.94532 -3.0862,-1.66912 -5.9091,-3.36069 -8.4355,-5.07617 -2.5265,-1.71548 -4.7563,-3.45489 -6.6582,-5.22266 -1.902,-1.76776 -3.477,-3.5627 -4.6895,-5.38867 -0.6063,-0.91298 -1.1212,-1.83502 -1.543,-2.76367 -0.4217,-0.92864 -0.7494,-1.8655 -0.9785,-2.81055 -0.2291,-0.94504 -0.3603,-1.89719 -0.3887,-2.85937 -0.028,-0.96219 0.046,-1.934 0.2266,-2.91406 0.1805,-0.98007 0.4678,-1.96812 0.8652,-2.9668 0.3975,-0.99868 0.9049,-2.00735 1.5274,-3.02539 0.6225,-1.01804 1.3592,-2.04584 2.2148,-3.08399 0.8557,-1.03814 1.8309,-2.0875 2.9278,-3.14648 2.1938,-2.11797 4.8764,-4.27861 8.0839,-6.484374 3.2076,-2.205763 6.9385,-4.456382 11.2247,-6.75586 4.2861,-2.299478 9.129,-4.647762 14.5586,-7.046875 10.8591,-4.798224 21.2602,-9.248368 31.2167,-13.394531 9.9566,-4.146163 19.4674,-7.987467 28.5469,-11.566406 18.1591,-7.157878 34.5895,-13.26606 49.3946,-18.664063 14.805,-5.398002 27.9844,-10.08552 39.6406,-14.402343 5.8281,-2.158412 11.2761,-4.224862 16.3554,-6.240235 5.0794,-2.015373 9.7902,-3.980329 14.1465,-5.9375 4.3563,-1.95717 8.3588,-3.9068194 12.0176,-5.8906249 3.6589,-1.9838054 6.9739,-4.0023789 9.9609,-6.0976562 2.9871,-2.09527738 5.6455,-4.2670075 7.9864,-6.5585938 2.3409,-2.2915863 4.3655,-4.7026583 6.0859,-7.2753901 0.8602,-1.286367 1.6436,-2.611816 2.3535,-3.984376 0.7099,-1.372559 1.3454,-2.792361 1.9082,-4.261718 1.1256,-2.938716 1.9612,-6.081168 2.5176,-9.470703 0.5564,-3.389536 0.8348,-7.02598 0.8477,-10.951172 0.013,-3.925193 -0.2411,-8.139861 -0.7461,-12.685547 -1.0102,-9.091374 -2.2727,-18.876356 -3.709,-29.041016 -1.4363,-10.16466 -3.0454,-20.707856 -4.75,-31.314456 -2.7107,-16.86651 -5.6629,-33.2769 -8.5352,-49.19336 z"
         style="opacity:1;fill:#ffffff;fill-opacity:1;stroke:none;stroke-width:7.18110228;stroke-miterlimit:4;stroke-dasharray:none;stroke-dashoffset:0;stroke-opacity:1"
         inkscape:connector-curvature="0" />
      <g
         id="g1255">
        <path
           style="opacity:1;fill:#ffffff;fill-opacity:1;stroke:none;stroke-width:7.18110228;stroke-miterlimit:4;stroke-dasharray:none;stroke-dashoffset:0;stroke-opacity:1"
           d="m 3719.9629,457.81445 a 322.85716,322.85716 0 0 0 123.5879,24.70508 322.85716,322.85716 0 0 0 322.8574,-322.85742 322.85716,322.85716 0 0 0 -246.4219,-313.2832 c -0.7188,0.70309 -1.4807,1.36847 -2.164,2.10156 -1.4896,1.59809 -2.8928,3.26835 -4.1953,5.01367 -1.3026,1.74533 -2.5052,3.56588 -3.5958,5.46484 -1.0905,1.89897 -2.0681,3.87653 -2.9218,5.93555 -0.8537,2.05903 -1.5839,4.20029 -2.1758,6.42578 -0.5919,2.22549 -1.0464,4.53522 -1.3516,6.9336 -0.3052,2.39837 -0.4615,4.88522 -0.455,7.46289 0.01,2.57766 0.1766,5.24639 0.5195,8.00976 0.3429,2.76337 0.8601,5.62069 1.5644,8.576174 0.7044,2.955486 1.5949,6.008096 2.6856,9.16211 1.0907,3.154014 2.3809,6.408623 3.8828,9.767578 1.5019,3.358954 3.2162,6.822271 5.1543,10.392578 1.938,3.570307 4.0989,7.249037 6.498,11.037109 2.3992,3.788072 4.5026,7.401729 6.3262,10.851563 1.8236,3.449834 3.3675,6.735636 4.6484,9.865234 1.281,3.129599 2.2993,6.102321 3.0704,8.929688 0.771,2.827366 1.2958,5.509596 1.5898,8.052734 0.294,2.543138 0.3573,4.947697 0.207,7.22461 -0.1503,2.276912 -0.5143,4.4263875 -1.0761,6.4550776 -0.5618,2.0286902 -1.3213,3.9378571 -2.2618,5.73632815 -0.9404,1.79847105 -2.0632,3.48601045 -3.3496,5.07226565 -1.2863,1.5862551 -2.7365,3.0708481 -4.3359,4.4628906 -1.5994,1.392042 -3.3468,2.690417 -5.2266,3.90625 -1.8797,1.215833 -3.8923,2.348623 -6.0195,3.40625 -2.1272,1.057627 -4.369,2.041561 -6.7109,2.958984 -2.3419,0.917424 -4.7829,1.76923 -7.3067,2.564454 -2.5237,0.795223 -5.1298,1.533582 -7.8027,2.224609 -5.3457,1.382054 -10.9579,2.573197 -16.7031,3.646484 -11.4905,2.146574 -23.5171,3.820045 -35.0313,5.595703 -5.7571,0.88783 -11.3864,1.801361 -16.7558,2.8125 -5.3694,1.011139 -10.48,2.119964 -15.1993,3.398438 -2.3596,0.639237 -4.6216,1.319658 -6.7695,2.052734 -2.1479,0.733076 -4.1806,1.518364 -6.084,2.363282 -1.9034,0.844917 -3.6766,1.749846 -5.3027,2.724609 -1.6261,0.974763 -3.1059,2.019967 -4.4219,3.142578 -1.3159,1.122611 -2.4684,2.322866 -3.4414,3.611328 -0.973,1.288462 -1.766,2.664402 -2.3633,4.136719 -0.5973,1.472317 -0.9987,3.040669 -1.1875,4.714844 -0.1888,1.674175 -0.1646,3.45362 0.088,5.347656 0.2526,1.894036 0.3869,3.682018 0.4102,5.36914 0.023,1.687123 -0.065,3.273086 -0.2559,4.765626 -0.1909,1.492539 -0.485,2.890883 -0.875,4.201171 -0.39,1.310289 -0.8751,2.533461 -1.4492,3.673829 -0.5741,1.140367 -1.2373,2.198862 -1.9805,3.18164 -0.7432,0.982778 -1.5676,1.889043 -2.4648,2.726563 -0.8972,0.837519 -1.8681,1.605955 -2.9043,2.310547 -1.0362,0.704591 -2.1368,1.345692 -3.2969,1.929687 -2.3202,1.167989 -4.874,2.1076 -7.5996,2.867187 -2.7256,0.759588 -5.624,1.339228 -8.6348,1.789068 -3.0107,0.44983 -6.1331,0.76908 -9.3086,1.00781 -3.1754,0.23873 -6.4031,0.39717 -9.623,0.52343 -6.4397,0.25254 -12.8489,0.37885 -18.7441,0.77344 -2.9476,0.1973 -5.7656,0.46102 -8.3965,0.8418 -2.631,0.38078 -5.0737,0.8781 -7.2676,1.54102 -2.1939,0.66291 -4.1408,1.49146 -5.7773,2.53515 -0.8183,0.52185 -1.5585,1.09884 -2.2149,1.73438 -0.6564,0.63553 -1.2276,1.33023 -1.707,2.09179 -0.4795,0.76156 -0.8669,1.58837 -1.1543,2.48828 -0.2875,0.89992 -0.4763,1.87323 -0.5567,2.92383 -0.08,1.0506 -0.052,2.17897 0.09,3.39258 0.1417,1.21361 0.3966,2.51143 0.7754,3.90039 0.3788,1.38896 0.9012,2.72642 1.5566,4.01563 0.6554,1.2892 1.4444,2.53144 2.3613,3.72656 0.917,1.19512 1.9616,2.34447 3.125,3.45117 1.1635,1.1067 2.445,2.1694 3.8399,3.19336 1.3949,1.02396 2.9024,2.00818 4.5137,2.95508 1.6112,0.94689 3.3279,1.85692 5.1406,2.73242 3.6253,1.751 7.638,3.36579 11.9785,4.86523 4.3405,1.49945 9.008,2.88447 13.9434,4.17774 4.9353,1.29327 10.1389,2.49448 15.5488,3.62695 10.8197,2.26495 22.4673,4.25245 34.4629,6.14649 11.9955,1.89403 24.3382,3.69393 36.5469,5.58007 12.2086,1.88615 24.2832,3.86029 35.7421,6.10157 5.7295,1.12063 11.3045,2.30845 16.6661,3.58593 5.3615,1.27749 10.5096,2.64334 15.3828,4.12305 4.8732,1.47972 9.4718,3.07151 13.7363,4.79883 4.2645,1.72732 8.1949,3.59102 11.7305,5.61133 1.7677,1.01015 3.5191,2.1976 5.25,3.54883 1.7309,1.35122 3.4415,2.86511 5.125,4.52929 1.6834,1.66419 3.3395,3.4787 4.9648,5.42774 1.6254,1.94903 3.2187,4.03252 4.7754,6.23828 1.5567,2.20576 3.0773,4.53437 4.5547,6.96875 1.4774,2.43438 2.9113,4.97449 4.2988,7.60937 2.775,5.26976 5.3611,10.91333 7.7129,16.81641 2.3518,5.90308 4.4707,12.06742 6.3145,18.37891 1.8437,6.31148 3.4112,12.77066 4.6621,19.26562 0.6254,3.24748 1.1715,6.50272 1.6328,9.75391 0.4613,3.25118 0.8384,6.49784 1.125,9.72461 0.2866,3.22676 0.4827,6.43318 0.584,9.60742 0.1012,3.17423 0.1064,6.31656 0.012,9.41015 -0.095,3.0936 -0.2886,6.14017 -0.5899,9.125 -0.3012,2.98484 -0.7081,5.9079 -1.2265,8.75586 -0.5184,2.84796 -1.1484,5.61977 -1.8946,8.30274 -0.7461,2.68297 -1.6092,5.27575 -2.5937,7.76562 -0.9845,2.48987 -2.0908,4.87784 -3.3242,7.14649 -1.2335,2.26865 -2.5949,4.41818 -4.0879,6.4375 -1.493,2.01932 -3.1177,3.90852 -4.8809,5.65039 -1.7632,1.74187 -3.665,3.33713 -5.709,4.77344 -2.0439,1.43631 -4.231,2.71377 -6.5664,3.8164 -2.3353,1.10264 -4.8177,2.03064 -7.455,2.77149 -2.6374,0.74084 -5.429,1.29359 -8.379,1.64453 -2.9499,0.35094 -6.0588,0.50067 -9.332,0.43359 -3.2731,-0.0671 -6.7095,-0.35006 -10.3164,-0.86328 -3.6069,-0.51322 -7.3846,-1.25668 -11.3359,-2.24414 -3.9514,-0.98746 -8.0765,-2.21916 -12.3828,-3.70899 -4.3064,-1.48982 -8.7929,-3.23945 -13.4649,-5.25976 -9.3439,-4.04061 -18.1529,-7.66964 -26.4492,-10.9043 -8.2963,-3.23466 -16.0809,-6.0749 -23.3809,-8.5332 -7.2999,-2.4583 -14.1138,-4.53456 -20.4687,-6.24609 -6.3549,-1.71154 -12.2498,-3.05837 -17.7109,-4.05274 -5.4612,-0.99437 -10.4888,-1.63656 -15.1075,-1.94336 -2.3093,-0.1534 -4.5166,-0.22193 -6.625,-0.20898 -2.1083,0.0129 -4.1175,0.10761 -6.0312,0.2832 -1.9138,0.17559 -3.7315,0.43109 -5.457,0.76563 -1.7256,0.33453 -3.3605,0.74849 -4.9043,1.23828 -1.5439,0.48978 -2.9968,1.05593 -4.3653,1.69726 -1.3685,0.64134 -2.652,1.35731 -3.8515,2.14649 -1.1996,0.78918 -2.3165,1.65065 -3.3536,2.58398 -1.037,0.93333 -1.994,1.93794 -2.875,3.01172 -0.8809,1.07378 -1.6847,2.2172 -2.416,3.42773 -0.7312,1.21054 -1.3886,2.48845 -1.9765,3.83204 -0.588,1.34358 -1.1076,2.75362 -1.5586,4.22656 -0.4511,1.47293 -0.8337,3.00883 -1.1543,4.60742 -0.6412,3.19717 -1.0297,6.64273 -1.1875,10.32031 -0.1579,3.67759 -0.087,7.58644 0.1875,11.71485 0.2742,4.1284 0.7532,8.47575 1.4082,13.02539 0.655,4.54963 1.4862,9.30287 2.4707,14.24414 0.9845,4.94126 2.1221,10.06974 3.3847,15.37304 0.6314,2.65165 1.0334,5.13884 1.2207,7.4668 0.1874,2.32796 0.1591,4.49777 -0.07,6.51758 -0.2293,2.01981 -0.6606,3.88999 -1.2793,5.61719 -0.3374,0.94208 -0.8636,1.73905 -1.3105,2.59765 z"
           id="path1119"
           transform="scale(0.26458333)"
           inkscape:connector-curvature="0" />
        <path
           style="opacity:1;fill:#131113;fill-opacity:1;stroke:none;stroke-width:7.18110228;stroke-miterlimit:4;stroke-dasharray:none;stroke-dashoffset:0;stroke-opacity:1"
           d="m 3833.707,-162.84766 c 2.8723,15.91646 5.8245,32.32685 8.5352,49.19336 1.7046,10.6066 3.3137,21.149796 4.75,31.314456 1.4363,10.16466 2.6988,19.949642 3.709,29.041016 0.505,4.545686 0.7589,8.760354 0.7461,12.685547 -0.013,3.925192 -0.2913,7.561636 -0.8477,10.951172 -0.5564,3.389535 -1.392,6.531987 -2.5176,9.470703 -0.5628,1.469357 -1.1983,2.889159 -1.9082,4.261718 -0.7099,1.37256 -1.4933,2.698009 -2.3535,3.984376 -1.7204,2.5727318 -3.745,4.9838038 -6.0859,7.2753901 -2.3409,2.2915863 -4.9993,4.46331642 -7.9864,6.5585938 -2.987,2.0952773 -6.302,4.1138508 -9.9609,6.0976562 -3.6588,1.9838055 -7.6613,3.9334549 -12.0176,5.8906249 -4.3563,1.957171 -9.0671,3.922127 -14.1465,5.9375 -5.0793,2.015373 -10.5273,4.081823 -16.3554,6.240235 -11.6562,4.316823 -24.8356,9.004341 -39.6406,14.402343 -14.8051,5.398003 -31.2355,11.506185 -49.3946,18.664063 -9.0795,3.578939 -18.5903,7.420243 -28.5469,11.566406 -9.9565,4.146163 -20.3576,8.596307 -31.2167,13.394531 -5.4296,2.399113 -10.2725,4.747397 -14.5586,7.046875 -4.2862,2.299478 -8.0171,4.550097 -11.2247,6.75586 -3.2075,2.205764 -5.8901,4.366404 -8.0839,6.484374 -1.0969,1.05898 -2.0721,2.10834 -2.9278,3.14648 -0.8556,1.03815 -1.5923,2.06595 -2.2148,3.08399 -0.6225,1.01804 -1.1299,2.02671 -1.5274,3.02539 -0.3974,0.99868 -0.6847,1.98673 -0.8652,2.9668 -0.1805,0.98006 -0.2549,1.95187 -0.2266,2.91406 0.028,0.96218 0.1596,1.91433 0.3887,2.85937 0.2291,0.94505 0.5568,1.88191 0.9785,2.81055 0.4218,0.92865 0.9367,1.85069 1.543,2.76367 1.2125,1.82597 2.7875,3.62091 4.6895,5.38867 1.9019,1.76777 4.1317,3.50718 6.6582,5.22266 2.5264,1.71548 5.3493,3.40705 8.4355,5.07617 3.0862,1.66912 6.4346,3.31664 10.0156,4.94532 3.5811,1.62867 7.3933,3.23788 11.4043,4.83203 8.0221,3.18829 16.8406,6.31469 26.1934,9.40039 9.3528,3.0857 19.2416,6.13165 29.4062,9.16211 20.3294,6.06091 41.7631,12.05759 62.2266,18.18164 10.2317,3.06202 20.2201,6.15585 29.707,9.30468 9.487,3.14884 18.4721,6.35373 26.6953,9.63672 4.1117,1.6415 8.0321,3.30242 11.7305,4.98633 3.6984,1.68392 7.1742,3.3908 10.3945,5.12305 3.2204,1.73225 6.1859,3.48888 8.8633,5.27539 2.6774,1.78651 5.0671,3.60253 7.1367,5.44922 2.0697,1.84668 3.8199,3.72394 5.2168,5.63672 0.6985,0.95639 1.308,1.92246 1.8262,2.89648 0.5182,0.97402 0.9457,1.95682 1.2754,2.94922 0.3297,0.9924 0.5621,1.99435 0.6953,3.00586 0.1332,1.01151 0.1672,2.03309 0.096,3.06445 -0.071,1.03136 -0.249,2.07305 -0.5332,3.125 -0.2842,1.05196 -0.6766,2.11422 -1.1816,3.1875 -2.0204,4.29315 -4.0401,8.45947 -6.0801,12.49219 -2.0401,4.03272 -4.1,7.93099 -6.1992,11.6875 -2.0993,3.75651 -4.2377,7.37143 -6.4356,10.83594 -2.1979,3.46451 -4.455,6.77882 -6.791,9.93554 -2.336,3.15673 -4.7501,6.15512 -7.2637,8.98829 -2.5135,2.83316 -5.1268,5.50032 -7.8574,7.99414 -2.7306,2.49381 -5.5793,4.81444 -8.5664,6.95312 -2.987,2.13868 -6.1115,4.09552 -9.3945,5.86328 -3.283,1.76777 -6.7254,3.34745 -10.3438,4.72852 -3.6184,1.38107 -7.413,2.56438 -11.4062,3.54297 -3.9933,0.97858 -8.1842,1.75218 -12.5918,2.3125 -4.4076,0.56032 -9.0332,0.90693 -13.8945,1.0332 -4.8614,0.12627 -9.9579,0.0326 -15.3125,-0.29102 -5.3546,-0.32356 -10.9663,-0.87683 -16.8536,-1.66601 -5.8873,-0.78918 -12.0503,-1.81536 -18.5097,-3.08594 -6.4595,-1.27058 -13.2161,-2.78497 -20.2871,-4.55273 -3.5356,-0.88389 -6.992,-1.61029 -10.3711,-2.1875 -3.3792,-0.57722 -6.6805,-1.00638 -9.9063,-1.29493 -3.2258,-0.28854 -6.3758,-0.43719 -9.4512,-0.45507 -3.0753,-0.0179 -6.076,0.0953 -9.0039,0.33007 -2.9278,0.23479 -5.783,0.59111 -8.5664,1.06055 -2.7833,0.46944 -5.4949,1.05219 -8.1367,1.73828 -2.6418,0.6861 -5.2136,1.47658 -7.7168,2.36133 -2.5032,0.88475 -4.9371,1.86429 -7.3047,2.92969 -2.3675,1.06539 -4.6694,2.21532 -6.9043,3.44336 -2.2348,1.22804 -4.4026,2.53357 -6.5078,3.90625 -2.1051,1.37268 -4.1466,2.81318 -6.125,4.3125 -0.4423,0.33518 -0.8491,0.702 -1.2851,1.04297 a 322.85716,322.85716 0 0 0 138.3281,110.0664 c 0.4469,-0.8586 0.9731,-1.65557 1.3105,-2.59765 0.6187,-1.7272 1.05,-3.59738 1.2793,-5.61719 0.2294,-2.01981 0.2577,-4.18962 0.07,-6.51758 -0.1873,-2.32796 -0.5893,-4.81515 -1.2207,-7.4668 -1.2626,-5.3033 -2.4002,-10.43178 -3.3847,-15.37304 -0.9845,-4.94127 -1.8157,-9.69451 -2.4707,-14.24414 -0.655,-4.54964 -1.134,-8.89699 -1.4082,-13.02539 -0.2743,-4.12841 -0.3454,-8.03726 -0.1875,-11.71485 0.1578,-3.67758 0.5463,-7.12314 1.1875,-10.32031 0.3206,-1.59859 0.7032,-3.13449 1.1543,-4.60742 0.451,-1.47294 0.9706,-2.88298 1.5586,-4.22656 0.5879,-1.34359 1.2453,-2.6215 1.9765,-3.83204 0.7313,-1.21053 1.5351,-2.35395 2.416,-3.42773 0.881,-1.07378 1.838,-2.07839 2.875,-3.01172 1.0371,-0.93333 2.154,-1.7948 3.3536,-2.58398 1.1995,-0.78918 2.483,-1.50515 3.8515,-2.14649 1.3685,-0.64133 2.8214,-1.20748 4.3653,-1.69726 1.5438,-0.48979 3.1787,-0.90375 4.9043,-1.23828 1.7255,-0.33454 3.5432,-0.59004 5.457,-0.76563 1.9137,-0.17559 3.9229,-0.27025 6.0312,-0.2832 2.1084,-0.0129 4.3157,0.0556 6.625,0.20898 4.6187,0.3068 9.6463,0.94899 15.1075,1.94336 5.4611,0.99437 11.356,2.3412 17.7109,4.05274 6.3549,1.71153 13.1688,3.78779 20.4687,6.24609 7.3,2.4583 15.0846,5.29854 23.3809,8.5332 8.2963,3.23466 17.1053,6.86369 26.4492,10.9043 4.672,2.02031 9.1585,3.76994 13.4649,5.25976 4.3063,1.48983 8.4314,2.72153 12.3828,3.70899 3.9513,0.98746 7.729,1.73092 11.3359,2.24414 3.6069,0.51322 7.0433,0.7962 10.3164,0.86328 3.2732,0.0671 6.3821,-0.0827 9.332,-0.43359 2.95,-0.35094 5.7416,-0.90369 8.379,-1.64453 2.6373,-0.74085 5.1197,-1.66885 7.455,-2.77149 2.3354,-1.10263 4.5225,-2.38009 6.5664,-3.8164 2.044,-1.43631 3.9458,-3.03157 5.709,-4.77344 1.7632,-1.74187 3.3879,-3.63107 4.8809,-5.65039 1.493,-2.01932 2.8544,-4.16885 4.0879,-6.4375 1.2334,-2.26865 2.3397,-4.65662 3.3242,-7.14649 0.9845,-2.48987 1.8476,-5.08265 2.5937,-7.76562 0.7462,-2.68297 1.3762,-5.45478 1.8946,-8.30274 0.5184,-2.84796 0.9253,-5.77102 1.2265,-8.75586 0.3013,-2.98483 0.4952,-6.0314 0.5899,-9.125 0.095,-3.09359 0.09,-6.23592 -0.012,-9.41015 -0.1013,-3.17424 -0.2974,-6.38066 -0.584,-9.60742 -0.2866,-3.22677 -0.6637,-6.47343 -1.125,-9.72461 -0.4613,-3.25119 -1.0074,-6.50643 -1.6328,-9.75391 -1.2509,-6.49496 -2.8184,-12.95414 -4.6621,-19.26562 -1.8438,-6.31149 -3.9627,-12.47583 -6.3145,-18.37891 -2.3518,-5.90308 -4.9379,-11.54665 -7.7129,-16.81641 -1.3875,-2.63488 -2.8214,-5.17499 -4.2988,-7.60937 -1.4774,-2.43438 -2.998,-4.76299 -4.5547,-6.96875 -1.5567,-2.20576 -3.15,-4.28925 -4.7754,-6.23828 -1.6253,-1.94904 -3.2814,-3.76355 -4.9648,-5.42774 -1.6835,-1.66418 -3.3941,-3.17807 -5.125,-4.52929 -1.7309,-1.35123 -3.4823,-2.53868 -5.25,-3.54883 -3.5356,-2.02031 -7.466,-3.88401 -11.7305,-5.61133 -4.2645,-1.72732 -8.8631,-3.31911 -13.7363,-4.79883 -4.8732,-1.47971 -10.0213,-2.84556 -15.3828,-4.12305 -5.3616,-1.27748 -10.9366,-2.4653 -16.6661,-3.58593 -11.4589,-2.24128 -23.5335,-4.21542 -35.7421,-6.10157 -12.2087,-1.88614 -24.5514,-3.68604 -36.5469,-5.58007 -11.9956,-1.89404 -23.6432,-3.88154 -34.4629,-6.14649 -5.4099,-1.13247 -10.6135,-2.33368 -15.5488,-3.62695 -4.9354,-1.29327 -9.6029,-2.67829 -13.9434,-4.17774 -4.3405,-1.49944 -8.3532,-3.11423 -11.9785,-4.86523 -1.8127,-0.8755 -3.5294,-1.78553 -5.1406,-2.73242 -1.6113,-0.9469 -3.1188,-1.93112 -4.5137,-2.95508 -1.3949,-1.02396 -2.6764,-2.08666 -3.8399,-3.19336 -1.1634,-1.1067 -2.208,-2.25605 -3.125,-3.45117 -0.9169,-1.19512 -1.7059,-2.43736 -2.3613,-3.72656 -0.6554,-1.28921 -1.1778,-2.62667 -1.5566,-4.01563 -0.3788,-1.38896 -0.6337,-2.68678 -0.7754,-3.90039 -0.1417,-1.21361 -0.1703,-2.34198 -0.09,-3.39258 0.08,-1.0506 0.2692,-2.02391 0.5567,-2.92383 0.2874,-0.89991 0.6748,-1.72672 1.1543,-2.48828 0.4794,-0.76156 1.0506,-1.45626 1.707,-2.09179 0.6564,-0.63554 1.3966,-1.21253 2.2149,-1.73438 1.6365,-1.04369 3.5834,-1.87224 5.7773,-2.53515 2.1939,-0.66292 4.6366,-1.16024 7.2676,-1.54102 2.6309,-0.38078 5.4489,-0.6445 8.3965,-0.8418 5.8952,-0.39459 12.3044,-0.5209 18.7441,-0.77344 3.2199,-0.12626 6.4476,-0.2847 9.623,-0.52343 3.1755,-0.23873 6.2979,-0.55798 9.3086,-1.00781 3.0108,-0.44984 5.9092,-1.02948 8.6348,-1.789068 2.7256,-0.759587 5.2794,-1.699198 7.5996,-2.867187 1.1601,-0.583995 2.2607,-1.225096 3.2969,-1.929687 1.0362,-0.704592 2.0071,-1.473028 2.9043,-2.310547 0.8972,-0.83752 1.7216,-1.743785 2.4648,-2.726563 0.7432,-0.982778 1.4064,-2.041273 1.9805,-3.18164 0.5741,-1.140368 1.0592,-2.36354 1.4492,-3.673829 0.39,-1.310288 0.6841,-2.708632 0.875,-4.201171 0.1909,-1.49254 0.2792,-3.078503 0.2559,-4.765626 -0.023,-1.687122 -0.1576,-3.475104 -0.4102,-5.36914 -0.2525,-1.894036 -0.2767,-3.673481 -0.088,-5.347656 0.1888,-1.674175 0.5902,-3.242527 1.1875,-4.714844 0.5973,-1.472317 1.3903,-2.848257 2.3633,-4.136719 0.973,-1.288462 2.1255,-2.488717 3.4414,-3.611328 1.316,-1.122611 2.7958,-2.167815 4.4219,-3.142578 1.6261,-0.974763 3.3993,-1.879692 5.3027,-2.724609 1.9034,-0.844918 3.9361,-1.630206 6.084,-2.363282 2.1479,-0.733076 4.4099,-1.413497 6.7695,-2.052734 4.7193,-1.278474 9.8299,-2.387299 15.1993,-3.398438 5.3694,-1.011139 10.9987,-1.92467 16.7558,-2.8125 11.5142,-1.775658 23.5408,-3.449129 35.0313,-5.595703 5.7452,-1.073287 11.3574,-2.26443 16.7031,-3.646484 2.6729,-0.691027 5.279,-1.429386 7.8027,-2.224609 2.5238,-0.795224 4.9648,-1.64703 7.3067,-2.564454 2.3419,-0.917423 4.5837,-1.901357 6.7109,-2.958984 2.1272,-1.057627 4.1398,-2.190417 6.0195,-3.40625 1.8798,-1.215833 3.6272,-2.514208 5.2266,-3.90625 1.5994,-1.3920425 3.0496,-2.8766355 4.3359,-4.4628906 1.2864,-1.5862552 2.4092,-3.2737946 3.3496,-5.07226565 0.9405,-1.79847105 1.7,-3.70763795 2.2618,-5.73632815 0.5618,-2.0286901 0.9258,-4.1781656 1.0761,-6.4550776 0.1503,-2.276913 0.087,-4.681472 -0.207,-7.22461 -0.294,-2.543138 -0.8188,-5.225368 -1.5898,-8.052734 -0.7711,-2.827367 -1.7894,-5.800089 -3.0704,-8.929688 -1.2809,-3.129598 -2.8248,-6.4154 -4.6484,-9.865234 -1.8236,-3.449834 -3.927,-7.063491 -6.3262,-10.851563 -2.3991,-3.788072 -4.56,-7.466802 -6.498,-11.037109 -1.9381,-3.570307 -3.6524,-7.033624 -5.1543,-10.392578 -1.5019,-3.358955 -2.7921,-6.613564 -3.8828,-9.767578 -1.0907,-3.154014 -1.9812,-6.206624 -2.6856,-9.16211 -0.7043,-2.955484 -1.2215,-5.812804 -1.5644,-8.576174 -0.3429,-2.76337 -0.5131,-5.4321 -0.5195,-8.00976 -0.01,-2.57767 0.1498,-5.06452 0.455,-7.46289 0.3052,-2.39838 0.7597,-4.70811 1.3516,-6.9336 0.5919,-2.22549 1.3221,-4.36675 2.1758,-6.42578 0.8537,-2.05902 1.8313,-4.03658 2.9218,-5.93555 1.0906,-1.89896 2.2932,-3.71951 3.5958,-5.46484 1.3025,-1.74532 2.7057,-3.41558 4.1953,-5.01367 0.6833,-0.73309 1.4452,-1.39847 2.164,-2.10156 a 322.85716,322.85716 0 0 0 -76.4355,-9.57422 322.85716,322.85716 0 0 0 -9.8438,0.34765 z"
           id="circle840"
           transform="scale(0.26458333)"
           inkscape:connector-curvature="0" />
        <path
           style="opacity:0.98999999;fill:#131113;fill-opacity:1;stroke:none;stroke-width:1.5;stroke-miterlimit:4;stroke-dasharray:none;stroke-dashoffset:0;stroke-opacity:1"
           id="path1121"
           sodipodi:type="arc"
           sodipodi:cx="1066.1382"
           sodipodi:cy="23.048731"
           sodipodi:rx="9.8889723"
           sodipodi:ry="9.8889723"
           sodipodi:start="4.0198401"
           sodipodi:end="2.9411123"
           d="m 1059.8241,15.43797 a 9.8889723,9.8889723 0 0 1 11.9675,-0.502834 9.8889723,9.8889723 0 0 1 3.6731,11.401029 9.8889723,9.8889723 0 0 1 -10.0103,6.577869 9.8889723,9.8889723 0 0 1 -9.0071,-7.896012 l 9.6909,-1.969291 z" />
      </g>
    </g>
  </g>
</svg>
