<?xml version="1.0" encoding="UTF-8" standalone="no"?>
<!-- Created with Inkscape (http://www.inkscape.org/) -->

<svg
   xmlns:dc="http://purl.org/dc/elements/1.1/"
   xmlns:cc="http://creativecommons.org/ns#"
   xmlns:rdf="http://www.w3.org/1999/02/22-rdf-syntax-ns#"
   xmlns:svg="http://www.w3.org/2000/svg"
   xmlns="http://www.w3.org/2000/svg"
   xmlns:xlink="http://www.w3.org/1999/xlink"
   xmlns:sodipodi="http://sodipodi.sourceforge.net/DTD/sodipodi-0.dtd"
   xmlns:inkscape="http://www.inkscape.org/namespaces/inkscape"
   width="170.67538mm"
   height="170.84538mm"
   viewBox="0 0 170.67538 170.84538"
   version="1.1"
   id="svg8"
   inkscape:version="0.92.2 (5c3e80d, 2017-08-06)"
   sodipodi:docname="icon8.svg">
  <defs
     id="defs2">
    <linearGradient
       inkscape:collect="always"
       id="linearGradient1181">
      <stop
         style="stop-color:#d7b03a;stop-opacity:1;"
         offset="0"
         id="stop1177" />
      <stop
         style="stop-color:#d7b03a;stop-opacity:0;"
         offset="1"
         id="stop1179" />
    </linearGradient>
    <linearGradient
       inkscape:collect="always"
       xlink:href="#linearGradient1181"
       id="linearGradient1183"
       x1="5135.2734"
       y1="73.522461"
       x2="5644.6309"
       y2="141.5625"
       gradientUnits="userSpaceOnUse" />
  </defs>
  <sodipodi:namedview
     id="base"
     pagecolor="#ffffff"
     bordercolor="#666666"
     borderopacity="1.0"
     inkscape:pageopacity="0.0"
     inkscape:pageshadow="2"
     inkscape:zoom="0.175"
     inkscape:cx="682.66263"
     inkscape:cy="-82.873027"
     inkscape:document-units="mm"
     inkscape:current-layer="layer1"
     showgrid="false"
     inkscape:window-width="1920"
     inkscape:window-height="1003"
     inkscape:window-x="-9"
     inkscape:window-y="-9"
     inkscape:window-maximized="1"
     fit-margin-top="0"
     fit-margin-left="0"
     fit-margin-right="0"
     fit-margin-bottom="0" />
  <metadata
     id="metadata5">
    <rdf:RDF>
      <cc:Work
         rdf:about="">
        <dc:format>image/svg+xml</dc:format>
        <dc:type
           rdf:resource="http://purl.org/dc/dcmitype/StillImage" />
        <dc:title></dc:title>
      </cc:Work>
    </rdf:RDF>
  </metadata>
  <g
     inkscape:label="Layer 1"
     inkscape:groupmode="layer"
     id="layer1"
     transform="translate(-1322.7999,43.178759)">
    <g
       id="g1272">
      <path
         transform="scale(0.26458333)"
         id="path1173"
         d="m 5592.002,336.86914 c -2.9674,-4.25838 -5.7869,-8.41133 -8.9415,-12.80859 -11.3231,-15.78378 -23.6311,-32.35344 -35.3339,-48.93555 -5.8514,-8.29105 -11.5521,-16.58519 -16.9024,-24.78516 -1.9375,-2.96951 -3.525,-5.83122 -5.3613,-8.77148 -7.0348,0.98016 -13.5536,1.85176 -20.9102,2.90625 -16.8833,2.42004 -34.5387,5.03406 -52.6191,7.83984 -18.0804,2.80578 -36.5861,5.8028 -55.1699,8.98633 -18.5839,3.18354 -37.2451,6.55411 -55.6387,10.10742 -18.3936,3.55331 -36.5195,7.28998 -54.0293,11.20508 -8.7549,1.95755 -17.3559,3.95936 -25.7598,6.00586 -8.4039,2.0465 -16.6099,4.13703 -24.5761,6.27148 -7.9662,2.13446 -15.693,4.31375 -23.1348,6.53516 -7.4418,2.22141 -14.599,4.48561 -21.4297,6.79297 -1.9599,0.66205 -3.6809,1.35241 -5.5859,2.02148 -0.026,1.19555 5e-4,2.50145 -0.033,3.67969 -0.1952,6.81178 -0.5234,13.33004 -0.9981,19.51563 -0.4747,6.18558 -1.0953,12.0376 -1.873,17.51562 -0.7777,5.47802 -1.7122,10.58241 -2.8164,15.27149 -1.1043,4.68907 -2.3777,8.96249 -3.8321,12.78125 -0.7271,1.90937 -1.5012,3.70432 -2.3203,5.38086 -0.8191,1.67654 -1.6836,3.23443 -2.5976,4.66796 -0.914,1.43353 -1.8769,2.74348 -2.8887,3.92383 -1.0118,1.18035 -2.073,2.23145 -3.1855,3.14844 -1.1126,0.91699 -2.276,1.70028 -3.4922,2.34375 -1.2163,0.64347 -2.4857,1.14804 -3.8086,1.50781 -1.3229,0.35977 -2.7003,0.57473 -4.1328,0.64063 -1.4325,0.0659 -2.9199,-0.0177 -4.4649,-0.25586 -1.545,-0.23814 -3.1461,-0.63124 -4.8066,-1.1836 -1.6605,-0.55235 -3.3793,-1.26388 -5.1582,-2.14062 -1.7789,-0.87674 -3.6193,-1.91761 -5.5196,-3.12891 -1.9002,-1.21129 -3.8621,-2.59241 -5.8867,-4.14843 -2.0245,-1.55603 -3.8582,-3.10354 -5.5078,-4.64063 -1.6496,-1.53709 -3.1149,-3.064 -4.4004,-4.58203 -1.2855,-1.51804 -2.3901,-3.02654 -3.3222,-4.52539 -0.9322,-1.49885 -1.6915,-2.9892 -2.2813,-4.46875 -0.5898,-1.47955 -1.0114,-2.94809 -1.2695,-4.4082 -0.2582,-1.46012 -0.3517,-2.91101 -0.2891,-4.35157 0.063,-1.44056 0.2818,-2.87209 0.6543,-4.29297 0.3725,-1.42088 0.8967,-2.83134 1.5684,-4.23242 0.6716,-1.40107 1.4913,-2.79268 2.4511,-4.17383 0.9599,-1.38114 2.0616,-2.75219 3.2989,-4.11328 1.2373,-1.36109 2.6094,-2.71182 4.1132,-4.05273 1.5039,-1.34091 3.1389,-2.67158 4.8985,-3.99219 3.5192,-2.64121 7.5385,-5.24153 12.0156,-7.80078 4.4771,-2.55925 9.4114,-5.0784 14.7598,-7.55469 5.3483,-2.47628 11.1113,-4.91041 17.2441,-7.30273 4.3732,-1.7059 9.1466,-3.36457 13.8809,-5.02735 0.1234,-5.71629 0.2143,-11.50962 0.164,-17.59375 -0.061,-7.35659 -0.2439,-14.96512 -0.5371,-22.78515 -0.2932,-7.82004 -0.6971,-15.85259 -1.1992,-24.05469 -0.5021,-8.2021 -1.1036,-16.57338 -1.791,-25.07617 -1.3749,-17.00559 -3.0971,-34.53186 -5.0723,-52.25195 -1.9751,-17.7201 -4.2026,-35.63437 -6.5898,-53.41797 -2.3872,-17.783601 -4.934,-35.436718 -7.5449,-52.632816 -2.611,-17.196097 -5.2853,-33.934985 -7.9317,-49.892578 -2.6464,-15.9575921 -5.2642,-31.133089 -7.7578,-45.201172 -4.9873,-28.136165 -9.4799,-51.843524 -12.7266,-68.515624 -0.2157,-1.10779 -0.1451,-0.70313 -0.3496,-1.74805 a 322.85716,322.85716 0 0 0 -135.7148,262.5918 322.85716,322.85716 0 0 0 322.8555,322.85742 322.85716,322.85716 0 0 0 269.5879,-145.65039 z"
         style="opacity:1;fill:#5b1d5f;fill-opacity:1;stroke:none;stroke-width:7.18110228;stroke-miterlimit:4;stroke-dasharray:none;stroke-dashoffset:0;stroke-opacity:1"
         inkscape:connector-curvature="0" />
      <path
         transform="scale(0.26458333)"
         id="circle844"
         d="m 5322.4141,-163.19531 a 322.85716,322.85716 0 0 0 -187.1407,60.26562 c 0.2045,1.04492 0.1339,0.64026 0.3496,1.74805 3.2467,16.6721 7.7393,40.379459 12.7266,68.515624 2.4936,14.068083 5.1114,29.2435799 7.7578,45.201172 2.6464,15.957593 5.3207,32.696481 7.9317,49.892578 2.6109,17.196098 5.1577,34.849215 7.5449,52.632816 2.3872,17.7836 4.6147,35.69787 6.5898,53.41797 1.9752,17.72009 3.6974,35.24636 5.0723,52.25195 0.6874,8.50279 1.2889,16.87407 1.791,25.07617 0.5021,8.2021 0.906,16.23465 1.1992,24.05469 0.2932,7.82003 0.4764,15.42856 0.5371,22.78515 0.05,6.08413 -0.041,11.87746 -0.164,17.59375 1.905,-0.66907 3.626,-1.35943 5.5859,-2.02148 6.8307,-2.30736 13.9879,-4.57156 21.4297,-6.79297 7.4418,-2.22141 15.1686,-4.4007 23.1348,-6.53516 7.9662,-2.13445 16.1722,-4.22498 24.5761,-6.27148 8.4039,-2.0465 17.0049,-4.04831 25.7598,-6.00586 17.5098,-3.9151 35.6357,-7.65177 54.0293,-11.20508 18.3936,-3.55331 37.0548,-6.92388 55.6387,-10.10742 18.5838,-3.18353 37.0895,-6.18055 55.1699,-8.98633 18.0804,-2.80578 35.7358,-5.4198 52.6191,-7.83984 7.3566,-1.05449 13.8754,-1.92609 20.9102,-2.90625 -3.2345,-5.17893 -6.6018,-10.40242 -9.4414,-15.45117 -2.2259,-3.95756 -4.3135,-7.86679 -6.2403,-11.7168 -1.9267,-3.85001 -3.6915,-7.63918 -5.2695,-11.35742 -1.578,-3.71824 -2.9708,-7.36549 -4.1504,-10.92774 -1.1795,-3.56224 -2.1475,-7.03984 -2.8789,-10.42187 -0.7314,-3.38203 -1.2253,-6.66811 -1.459,-9.8457 -0.2336,-3.1776 -0.2064,-6.24638 0.1075,-9.19532 0.3138,-2.94893 0.9132,-5.77855 1.8242,-8.47461 0.4555,-1.34802 0.9894,-2.66309 1.6035,-3.94335 0.6141,-1.28027 1.309,-2.52491 2.0879,-3.73438 0.7789,-1.20947 1.6419,-2.38387 2.5918,-3.51953 0.9499,-1.13566 1.9862,-2.2322 3.1133,-3.29102 1.1271,-1.05881 2.3457,-2.07965 3.6562,-3.05859 1.3105,-0.97894 2.7127,-1.91646 4.2129,-2.8125 3.0003,-1.79208 6.3875,-3.41512 10.1836,-4.85742 3.7961,-1.44231 8.0029,-2.70512 12.6445,-3.77344 4.6417,-1.06831 9.1158,-1.97883 13.4297,-2.74219 4.314,-0.76336 8.4673,-1.37796 12.4649,-1.85351 3.9975,-0.47556 7.8387,-0.81269 11.5312,-1.01758 3.6925,-0.20489 7.2361,-0.2791 10.6348,-0.23047 3.3986,0.0486 6.6534,0.22086 9.7695,0.50586 3.1161,0.285 6.0926,0.68328 8.9375,1.1875 2.8449,0.50422 5.5577,1.11401 8.1426,1.82031 2.5849,0.7063 5.0426,1.50916 7.3789,2.40039 2.3362,0.89123 4.5515,1.87067 6.6504,2.92969 2.0988,1.05902 4.0823,2.19855 5.9551,3.4082 1.8727,1.20966 3.635,2.48888 5.2929,3.83203 1.6579,1.34315 3.2097,2.74949 4.6641,4.20899 0.6181,0.62025 1.1477,1.28673 1.7305,1.92578 a 322.85716,322.85716 0 0 0 -322.2168,-304.75781 z"
         style="opacity:1;fill:url(#linearGradient1183);fill-opacity:1;stroke:none;stroke-width:7.18110228;stroke-miterlimit:4;stroke-dasharray:none;stroke-dashoffset:0;stroke-opacity:1"
         inkscape:connector-curvature="0" />
    </g>
  </g>
</svg>
